<svg width="6" height="19" viewBox="0 0 6 19" fill="none" xmlns="http://www.w3.org/2000/svg">
<path d="M0.4375 6.81738L0.751953 5.84668C1.47656 6.10189 2.00293 6.32292 2.33105 6.50977C2.24447 5.6849 2.19889 5.11751 2.19434 4.80762H3.18555C3.17188 5.25879 3.11947 5.82389 3.02832 6.50293C3.49772 6.26595 4.03548 6.0472 4.6416 5.84668L4.95605 6.81738C4.37728 7.00879 3.8099 7.13639 3.25391 7.2002C3.5319 7.44173 3.92383 7.8724 4.42969 8.49219L3.60938 9.07324C3.34505 8.71322 3.03288 8.22331 2.67285 7.60352C2.33561 8.24609 2.03939 8.736 1.78418 9.07324L0.977539 8.49219C1.50618 7.84049 1.88444 7.40983 2.1123 7.2002C1.52441 7.08626 0.966146 6.95866 0.4375 6.81738Z" fill="#3853DE"/>
</svg>
